<svg xmlns="http://www.w3.org/2000/svg" version="1.1" xmlns:xlink="http://www.w3.org/1999/xlink" xmlns:svgjs="http://svgjs.dev/svgjs" width="1440" height="560" preserveAspectRatio="none" viewBox="0 0 1440 560"><g mask="url(&quot;#SvgjsMask1002&quot;)" fill="none"><rect width="1440" height="560" x="0" y="0" fill="url(&quot;#SvgjsLinearGradient1003&quot;)"></rect><path d="M1440 0L1126.96 0L1440 179.25z" fill="rgba(255, 255, 255, .1)"></path><path d="M1126.96 0L1440 179.25L1440 182.18L883.45 0z" fill="rgba(255, 255, 255, .075)"></path><path d="M883.45 0L1440 182.18L1440 388.24L653.1700000000001 0z" fill="rgba(255, 255, 255, .05)"></path><path d="M653.1700000000001 0L1440 388.24L1440 460.16L652.0200000000001 0z" fill="rgba(255, 255, 255, .025)"></path><path d="M0 560L416.27 560L0 321.26z" fill="rgba(0, 0, 0, .1)"></path><path d="M0 321.26L416.27 560L672.16 560L0 162.89z" fill="rgba(0, 0, 0, .075)"></path><path d="M0 162.89L672.16 560L769.0799999999999 560L0 100.96999999999998z" fill="rgba(0, 0, 0, .05)"></path><path d="M0 100.96999999999997L769.0799999999999 560L800.7499999999999 560L0 33.71999999999997z" fill="rgba(0, 0, 0, .025)"></path></g><defs><mask id="SvgjsMask1002"><rect width="1440" height="560" fill="#ffffff"></rect></mask><linearGradient x1="15.28%" y1="-39.29%" x2="84.72%" y2="139.29%" gradientUnits="userSpaceOnUse" id="SvgjsLinearGradient1003"><stop stop-color="#0e2a47" offset="0"></stop><stop stop-color="#00459e" offset="1"></stop></linearGradient></defs></svg>